<svg viewBox="0 0 800 450" xmlns="http://www.w3.org/2000/svg" role="img" aria-label="Abstract illustration of multiple devices">
  <defs>
    <linearGradient id="t4g" x1="0" y1="0" x2="800" y2="450" gradientUnits="userSpaceOnUse">
      <stop offset="0" stop-color="#182036"/>
      <stop offset="1" stop-color="#080c18"/>
    </linearGradient>
    <linearGradient id="t4line" x1="0" y1="0" x2="800" y2="0" gradientUnits="userSpaceOnUse">
      <stop offset="0" stop-color="#468cff"/>
      <stop offset="1" stop-color="#37d3f0"/>
    </linearGradient>
  </defs>
  <rect width="800" height="450" fill="url(#t4g)"/>
  <rect x="100" y="120" width="260" height="170" rx="12" fill="#0c1324" stroke="#22304f" stroke-width="1.5"/>
  <rect x="118" y="138" width="224" height="120" rx="4" fill="#101a30"/>
  <rect x="118" y="138" width="110" height="120" rx="4" fill="url(#t4line)" opacity="0.3"/>
  <circle cx="185" cy="198" r="22" fill="#0a0f1e" stroke="url(#t4line)" stroke-width="2.4"/>
  <path d="M176 186l20 12-20 12v-24Z" fill="url(#t4line)"/>
  <rect x="195" y="298" width="70" height="10" rx="5" fill="#1a2338"/>

  <rect x="430" y="150" width="130" height="150" rx="14" fill="#0c1324" stroke="#22304f" stroke-width="1.5"/>
  <rect x="442" y="166" width="106" height="118" rx="4" fill="#101a30"/>
  <rect x="442" y="166" width="106" height="50" rx="4" fill="url(#t4line)" opacity="0.3"/>
  <circle cx="495" cy="191" r="14" fill="#0a0f1e" stroke="url(#t4line)" stroke-width="2"/>
  <path d="M489 184l12 7-12 7v-14Z" fill="url(#t4line)"/>

  <path d="M610 130h140v100h-140z" fill="#0c1324" stroke="#22304f" stroke-width="1.5"/>
  <rect x="620" y="140" width="120" height="66" rx="3" fill="#101a30"/>
  <rect x="620" y="140" width="60" height="66" rx="3" fill="url(#t4line)" opacity="0.3"/>
  <path d="M600 230h180l12 18H588l12-18Z" fill="#0e1526" stroke="#22304f" stroke-width="1.2"/>

  <path d="M360 205 C 400 205, 400 205, 430 205" stroke="url(#t4line)" stroke-width="1.6" stroke-dasharray="2 6"/>
  <path d="M560 220 C 585 220, 585 220, 610 200" stroke="url(#t4line)" stroke-width="1.6" stroke-dasharray="2 6"/>
</svg>
